<svg width="676" height="825" xmlns="http://www.w3.org/2000/svg" xmlns:xlink="http://www.w3.org/1999/xlink" overflow="hidden"><defs><clipPath id="clip0"><rect x="1828" y="538" width="676" height="825"/></clipPath></defs><g clip-path="url(#clip0)" transform="translate(-1828 -538)"><path d="M353.682 822.416C224.705 820.946 181.783 819.269 170.421 814.866 167.686 813.817 158.849 810.669 150.643 807.943 125.395 799.757 103.723 785.919 75.1087 760.113 54.489 741.444 40.6026 723.194 28.8198 699.7 5.25504 652.083 0.205131 628.798 0.205131 568.175 0.415679 518.879 2.94045 501.049 14.9334 467.277 27.5576 431.615 39.7608 411.898 63.9572 388.194 92.9926 359.666 123.501 342.464 163.478 332.185 177.785 328.409 180.1 329.249 195.459 343.513 203.454 351.064 212.712 359.246 215.658 361.553 225.757 369.524 221.759 374.559 203.244 377.076 167.055 382.11 126.657 401.409 100.567 426.162 84.1554 441.685 76.792 453.012 63.1154 484.477 44.8107 526.431 43.7587 596.913 60.591 647.468 79.1058 702.846 131.707 752.772 184.308 764.728 226.599 774.378 229.965 774.585 418.486 774.585L597.749 774.585 599.854 769.132C601.115 766.197 601.956 747.946 601.956 728.439 601.956 696.553 601.536 692.777 598.17 690.89 596.066 689.841 535.049 688.792 446.259 688.792 364.623 688.582 286.143 687.953 271.625 687.324 230.596 685.436 211.029 678.094 190.199 656.907 175.681 642.223 167.265 624.603 161.794 597.333L157.376 575.307 162.005 554.96C167.686 530.207 176.523 512.796 190.62 498.532 202.612 486.575 224.705 474.828 241.116 471.891 247.007 470.843 304.237 469.374 368.41 468.535 499.07 466.857 491.075 467.696 527.474 450.495 559.455 435.182 592.068 402.038 605.113 371.832 614.792 348.967 617.316 337.22 622.998 285.407 624.89 268.206 624.89 258.137 622.998 242.405 621.735 231.077 619.841 214.715 618.789 206.115 616.475 185.977 612.056 171.083 601.115 146.541 595.013 132.905 586.807 121.787 572.922 108.572 557.772 94.3077 554.406 92.0005 551.461 93.8881 550.198 94.7274 549.357 120.739 549.357 164.161L549.357 232.965 528.947 251.634C517.796 261.703 501.384 276.807 492.548 285.197 483.921 293.378 473.19 302.818 469.193 306.174 461.618 312.257 427.533 343.303 391.765 377.076 364.833 402.458 365.465 402.038 359.573 398.892 356.837 397.423 348.001 390.501 339.795 383.578 306.13 354.63 294.979 345.401 266.575 323.585 237.75 301.139 233.752 297.994 201.35 271.772 186.833 260.025 172.735 249.117 170.211 247.858 166.634 245.971 147.277 245.761 92.7825 246.81 52.8057 247.648 18.3 248.697 15.9854 249.327 13.6708 249.956 10.094 249.117 7.77981 247.439 3.99247 244.712 3.78192 239.048 3.151 123.675 2.30917 10.4007 2.51936 2.63894 6.09651 1.17074 12.4086-1.76638 453.412 1.38058 471.508 4.52719 532.104 14.5958 572.29 32.8456 605.323 64.9401 632.886 91.7907 647.824 116.334 661.922 158.917 673.914 194.787 676.019 213.247 674.967 273.66 673.914 331.346 672.862 340.367 662.132 372.46 653.296 398.472 650.981 403.087 634.569 428.469 617.737 454.271 593.962 479.443 573.342 493.287 555.459 505.245 526.002 520.138 514.009 523.285 509.801 524.333 502.016 526.222 496.756 527.48 490.444 529.158 450.677 529.997 379.982 529.997 273.308 530.207 272.677 530.207 264.05 534.822 252.478 541.115 241.116 554.33 237.96 565.868 232.911 584.117 243.22 604.465 262.156 613.275 270.152 617.051 280.041 617.261 460.356 617.261 564.716 617.261 651.402 617.89 653.296 618.519 656.241 619.568 656.661 630.476 656.661 718.789 656.661 777.311 655.82 818.848 654.557 820.739 652.243 824.515 578.181 824.928 353.682 822.416ZM365.886 322.117C373.039 315.824 424.377 267.367 451.308 241.356L476.767 216.813 478.45 139.198C479.503 96.4058 479.713 59.6961 479.082 57.8082 477.82 54.6613 462.25 54.4518 272.256 55.7105 134.652 56.7594 65.8511 58.0177 64.3779 59.4863 63.1154 60.745 62.2743 84.2391 62.2743 125.983L62.2743 190.382 123.922 191.011 185.57 191.431 196.511 198.773C202.612 202.758 213.133 210.94 220.287 217.023 231.648 226.881 287.826 271.563 307.183 286.246 311.391 289.183 324.646 299.461 336.85 308.692 348.843 318.131 359.573 325.682 360.204 325.682 361.046 325.682 363.571 324.005 365.886 322.117Z" fill="#F2F2F2" fill-rule="evenodd" transform="matrix(1 0 0 -1 1828 1363)"/><path d="M1.34601 74.2822C-0.548388 72.3991 0.504257 1.26006 2.60919 0.423024 3.66147 0.213674 17.7644 0.213674 33.5508 0.841724L62.5984 1.88775 63.2296 36.2017C63.6507 58.7989 63.0191 71.3531 61.5457 72.8174 59.4408 74.9099 3.45094 76.3746 1.34601 74.2822Z" fill="#F2F2F2" fill-rule="evenodd" transform="matrix(1 0 0 -1 2150 1246)"/></g></svg>