<?xml version="1.0" encoding="UTF-8"?>
<!DOCTYPE svg PUBLIC "-//W3C//DTD SVG 1.1//EN" "http://www.w3.org/Graphics/SVG/1.1/DTD/svg11.dtd">
<!-- Creator: CorelDRAW 2020 (64-Bit) -->
<svg xmlns="http://www.w3.org/2000/svg" xml:space="preserve" width="2321px" height="1650px" version="1.1" style="shape-rendering:geometricPrecision; text-rendering:geometricPrecision; image-rendering:optimizeQuality; fill-rule:evenodd; clip-rule:evenodd"
viewBox="0 0 596.59 424.19"
 xmlns:xlink="http://www.w3.org/1999/xlink"
 xmlns:xodm="http://www.corel.com/coreldraw/odm/2003">
 <defs>
  <style type="text/css">
   <![CDATA[
    .fil3 {fill:#010103}
    .fil2 {fill:#085AA6}
    .fil1 {fill:#2C892E}
    .fil4 {fill:#DB5D11}
    .fil0 {fill:#F19A15}
   ]]>
  </style>
 </defs>
 <g id="Capa_x0020_1">
  <metadata id="CorelCorpID_0Corel-Layer"/>
  <path class="fil0" d="M256.97 167.74c11.68,-7.3 35.78,-10.71 50.45,-5.4 12.38,4.49 27.48,19.59 30.85,32.17 -9.62,6.58 -32.05,5.5 -45.87,-3.16 -6.22,-3.9 -10.92,-8.01 -16.48,-12.49 -10.03,-8.11 -11.67,-6.5 -17.06,-9.74l-1.89 -1.38zm44.01 -114.5c5.45,8.99 7.62,17.81 18.2,27.76 36.92,34.71 41.95,48.11 37.15,98.12 -7.93,-0.14 -27.34,-11.72 -32.82,-15.75 -33.88,-24.91 -37.51,-67.95 -24.56,-105.88 0.48,-1.39 0.34,-1.1 0.89,-2.28 0.86,-1.85 0.65,-1.31 1.14,-1.97zm-44.45 -36.16c-62.59,6.48 -98.8,55.68 -89.18,113.84 8.72,52.74 58.12,91 121.57,84.38 102.15,-10.68 117.88,-127.23 49.45,-177.05 -20.84,-15.17 -48.67,-24.61 -81.84,-21.17z"/>
  <path class="fil1" d="M374.65 262.66c-1.88,-27.45 0.31,-41.35 15.09,-57.56 18.05,-19.81 15.63,-9.55 32.9,-35.66l2.94 -3.35c4.19,22.84 7.45,45.29 -4.32,65.17 -8.01,13.52 -25.95,28.32 -46.61,31.4zm-81.89 -29.59c2.69,4.05 19.04,12.45 25.22,15.12 9.44,4.06 20.39,7.83 31.24,10.53 10.92,2.72 23.59,5.12 35.48,6.36 8.92,0.93 33.14,0.68 39.14,2.26 -1.16,3.15 -4.05,3.02 -7.58,3.85 -3.33,0.78 -5.94,1.34 -9.05,2.08l54.62 0.51 -50.92 -272.9 -102.69 -0.08c9.7,4.38 19.46,2.87 40.84,14.97 39.21,22.21 62.34,57.37 59.51,109.14 -2.92,53.42 -46.03,89.25 -92.83,102.57 -5.37,1.53 -19.03,3.65 -22.98,5.59z"/>
  <path class="fil2" d="M134.48 273.79l200.25 -0.03c-9.23,-4.34 -26.1,-3.96 -53.49,-16.69 -7.96,-3.69 -15.54,-8.03 -21.98,-12.29 -3.86,-2.55 -6.45,-4.41 -9.98,-7.16 -4.43,-3.46 -5.77,-4.35 -12.56,-5.61 -19.1,-3.56 -35.47,-11.52 -49.01,-20.63 -7.49,-5.04 -13.56,-9.9 -18.86,-15.39 -8.12,-8.4 -12.94,-17.35 -15.67,-19.94 -3.6,6.31 -7.78,38.24 -9.69,48.35 -2.93,15.45 -7.35,33.91 -9.01,49.39z"/>
  <path class="fil3" d="M183.13 347.21c40.5,-6.15 51.42,49.04 13.7,55.85 -42.32,7.63 -53.91,-49.75 -13.7,-55.85zm52.46 72.21c-9.89,-3 -27.71,-0.24 -36.1,-8.57 3.39,-1.91 8.41,-2.78 12.76,-5.16 15.01,-8.2 20.61,-19.51 18.61,-38.36l6.97 1.79c1.69,9.29 -1.06,28.22 3.31,35.15 5.18,8.19 22.71,9.64 28.35,2.13 2.67,2.43 0.87,3.23 8.92,3.2 3.71,-0.02 7.91,0.37 10.88,-0.89 -0.7,-3.02 -0.02,-1.61 -2.44,-3.01 -0.16,-0.09 -3.37,-1.05 -4.72,-1.71 -0.89,-10.43 0.14,-29.96 0.37,-40.27 -5.54,-0.48 -14.38,-0.27 -18.96,0.24 0.59,3.74 0.96,4.56 7.22,5.34 1.09,13.93 3.31,36.12 -13.6,34.15 -10.84,-1.17 -8.91,-27.59 -7.83,-39.44l-19.72 -0.15c-4.07,-17.37 -25.29,-26.83 -45.04,-24.31 -19.2,2.45 -37.04,13.59 -37.7,33.86 -0.5,15.32 7.84,27 19.88,33.51 4.98,2.69 8.86,2.77 13.42,4.82 9.54,4.28 16.65,13.34 41.58,12.38 2.51,-0.1 5.71,-0.37 8.15,-0.78 5.22,-0.9 4.98,-0.54 5.69,-3.92z"/>
  <path class="fil3" d="M59.36 388.36c-4.17,-22.46 30.3,-27.27 34.35,-2.67 3.68,22.43 -30.14,25.3 -34.35,2.67zm-59.36 -46.05c1.23,3.92 -2.21,0.76 3.27,3.21 2.92,1.31 2.37,0.2 5.39,2.14 1.16,6.62 1.33,49.98 -0.2,55.69 -2.69,1.75 -2.28,0.96 -4.49,1.8 -5.63,2.15 -3.09,-0.2 -3.92,3.56 4.87,2.05 39.87,0.79 48.11,0.83l1.24 -14.65c4.37,13.57 22.46,18.92 35.51,15.17 11.64,-3.35 23.68,-14.49 18.8,-30.06 -8.71,-27.78 -59.41,-22.86 -54.56,12.64l-1.55 0.27c-4.95,1.8 -0.91,0.38 -6.09,9.02l-20.78 0.29c-1.75,-5.99 -1.72,-48.67 0.11,-55.14 9.6,-3.65 6.99,-0.61 8.31,-4.77 -4.03,-2 -25.05,-2.11 -29.15,0z"/>
  <path class="fil3" d="M469.77 398.65c-8.61,10.03 -24.78,1.83 -17.87,-9.27 3.23,-5.19 17.56,-7.47 19.04,1.35 0.44,2.61 -0.05,6.62 -1.17,7.92zm18.4 -62.39c1.06,3.32 0.32,2.13 2.67,3.64 0.06,0.04 4.2,1.48 4.68,1.67 1.3,30.97 1.19,32 0.58,62.91 -7.79,1.85 -7.86,3.63 -14.68,-0.56 -0.84,-22.84 4.67,-51.63 -36.92,-39.32l-0.21 10.9c0.46,2.79 -1.63,-0.96 1.23,3.57 6.57,0.45 0.63,-9.53 11.82,-10.2 8.46,-0.51 12.9,3.11 13.16,10.72 -15.09,-2.02 -31.86,0.29 -29.66,18.45 1.19,9.74 13.59,16.41 23.98,11.62 5.14,-2.37 3.1,-3.92 6.44,-0.13l15.42 -0.37c3.25,-0.15 0.98,-0.02 4.99,0.24 5.91,0.38 17.59,1.34 22.57,-0.69 -1.1,-4.23 -2.49,-2.77 -7.18,-4.73 -1.38,-23.71 -0.58,-43.54 -0.46,-67.85l-18.43 0.13z"/>
  <path class="fil3" d="M520.52 380.66c1.98,-15.45 26.88,-15.22 27.41,-0.11l-27.41 0.11zm38.05 14.79c-2.2,-1.43 -11.7,9.23 -24.05,6.88 -8.23,-0.98 -13.76,-6.58 -14.59,-14.57l38.86 -0.27c0.66,-33.61 -43.42,-32.65 -48.73,-6.4 -7.04,34.77 45,39.32 48.51,14.36z"/>
  <path class="fil3" d="M296.4 380.67c1.87,-15.9 27.32,-14.68 27.15,-0.08l-27.15 0.08zm37.92 14.91c-6.79,0.87 -12.4,7.93 -23.65,6.78 -8.05,-0.82 -14.44,-6.75 -14.82,-14.78l38.61 -0.02c-0.19,-36.24 -45.1,-30.92 -48.99,-5.06 -5.12,34.03 45.8,36.68 48.85,13.08z"/>
  <path class="fil3" d="M352.33 366.71c-0.21,-0.06 -0.44,-0.57 -0.51,-0.4 -0.42,0.99 -0.24,-2.33 -4.79,-2.59 -4.56,0 -10.97,-1.03 -14.76,1.08 1.1,3.72 -1.47,0.57 3.13,3.05 1.38,0.74 3.06,0.82 4.11,2.78 0.05,0.09 4.13,30.22 -1.92,33.86 -6.95,4.18 -3.86,-0.14 -5.53,4.5 4.92,1.23 22.11,1.52 26.43,-0.36 -1.21,-3.63 -0.18,-1.53 -3.01,-2.97 -0.91,-0.46 -1.27,-0.42 -2.37,-0.97 -1.35,-0.67 -1.33,-0.6 -2.2,-1.34 -1.08,-5.42 -0.97,-15.42 -0.74,-21.5 0.5,-13.63 29.87,-25.83 22.32,22.38 -0.52,0.17 -4.03,1.12 -4.14,1.17 -5.14,2.33 -2.18,-0.64 -2.97,3.31 3.43,1.5 22.17,1.43 25.59,0 -0.77,-3.74 -0.76,-2.06 -7.09,-4.68 -1.64,-10.08 1.29,-27.84 -3.51,-35.07 -5.26,-7.92 -20.21,-8.4 -28.04,-2.25z"/>
  <path class="fil3" d="M382.43 364.11c2.03,5.4 3.6,2.55 7.83,6.04 1.85,9.79 -1.9,27.22 3.43,34.74 4.67,6.6 21.63,9.67 28.09,1.54 0.22,0.2 0.46,0.29 0.57,0.67 0.3,1.14 1.25,2.42 3.93,2.42 5.08,0 11.94,0.69 15.74,-0.93 -4.49,-12.68 -10.29,18.08 -7.4,-44.87 -5.46,0 -14.15,-1.45 -18.95,1.08 0.99,3.11 1.27,2.41 7.41,4.32 0.55,11.85 4.56,33.07 -10.79,34.37 -12.85,1.09 -11.7,-12.31 -11.44,-23.7l0.72 -16.04 -19.14 0.36z"/>
  <path class="fil3" d="M106.36 394.2l-0.31 13.87c12.61,4.14 33.08,5.44 35.19,-9.22 2.66,-18.44 -25.78,-15.27 -26.18,-24.41 -0.23,-5.15 5.68,-7.02 12.06,-6 9.52,1.52 3.18,9.01 10.94,10.15l-0.14 -13.78c-8.58,-3.76 -20.55,-4.11 -27.62,2.09 -6.88,6.03 -7.99,14.65 4.1,20.63 5.88,2.91 23.6,7.47 15.61,15.05 -2.67,2.54 -10.69,3.33 -14.89,1.4 -5.8,-2.66 -2.33,-9.68 -8.76,-9.78z"/>
  <path class="fil3" d="M562.3 393.93c-2.31,3.57 -1.35,9.66 -1.31,14.17 9.9,2.76 33.12,7.12 35.42,-9.25 2.52,-18 -22.37,-12.9 -26.26,-24.41 1.74,-4.85 5.76,-7.02 12.14,-6.01 9.07,1.44 3.25,7.51 9.97,10 1.27,-3.17 1.42,-10.38 0.03,-13.96 -21.8,-9.19 -45.71,12.03 -22.73,23.07 5.76,2.77 23.47,7.45 15.61,15.02 -2.65,2.55 -10.67,3.36 -14.91,1.46 -5.96,-2.67 -1.99,-8.43 -7.96,-10.09z"/>
  <path class="fil4" d="M180.03 28.93c2.9,-0.91 18.42,-11.52 34.06,-17.68 7,-2.76 33.53,-10.68 40.25,-9.87 -11.48,-2.27 -55.22,-1.17 -69.04,-0.66l-5.27 28.21z"/>
 </g>
</svg>
